<svg xmlns="http://www.w3.org/2000/svg" width="1670.452" height="304">
  <path fill="none" d="M2 2h100v50H2Zm200 50h100v50H202ZM2 102h100v50H2Z" style="fill:#fff;fill-opacity:0;stroke:#9ccc65;stroke-width:4px"/>
  <path d="M202 152h100v50H202Z" style="fill:#9ccc65;fill-opacity:1;stroke:#9ccc65;stroke-width:4px"/>
  <path fill="none" d="M2 202h100v50H2Zm200 50h100v50H202Z" style="fill:#fff;fill-opacity:0;stroke:#9ccc65;stroke-width:4px"/>
  <path fill="none" d="M102 2h100v50H102Zm0 50h100v50H102Zm0 50h100v50H102Z" style="fill:#fff;fill-opacity:0;stroke:#558b2f;stroke-width:4px"/>
  <path d="M102 152h100v50H102Z" style="fill:#558b2f;fill-opacity:1;stroke:#558b2f;stroke-width:4px"/>
  <path fill="none" d="M102 202h100v50H102Zm0 50h100v50H102Z" style="fill:#fff;fill-opacity:0;stroke:#558b2f;stroke-width:4px"/>
  <path d="M429.947 67.827h12.133q31.547 0 31.547 30.853v107.813q0 30.507-31.547 30.507h-12.133q-16.987 0-21.494-13.52v61.36h-31.2V67.827h31.2v13.52q4.507-13.52 21.494-13.52Zm12.48 133.813v-98.453q0-6.24-2.08-7.974-2.08-2.08-8.32-2.08h-12.134q-6.24 0-9.013 2.774-2.427 2.773-2.427 9.36v94.293q0 6.587 2.427 9.36 2.773 2.773 9.013 2.773h12.134q6.24 0 8.32-1.733 2.08-2.08 2.08-8.32zm84.586 83.2h-20.8v-24.96h14.213q14.907 0 18.027-11.44l3.467-14.213h-16.987l-35.36-166.4h31.893l25.654 141.786 23.92-141.786h31.546L566.88 253.293q-7.627 31.547-39.867 31.547Zm127.92-73.147h62.746V237h-94.293V19.987h91.867v25.306h-60.32V112.2h49.92v25.307h-49.92zm88.052-191.706h75.574q32.24 0 32.24 30.506v156q0 30.507-32.24 30.507h-75.574Zm76.267 182.346V54.653q0-6.24-2.08-7.973-2.08-2.08-8.32-2.08h-34.32v167.787h34.32q6.24 0 8.32-1.734 2.08-2.08 2.08-8.32zM964.852 237l-8.667-50.267h-45.76L902.452 237h-31.2l38.48-217.013h45.413L996.398 237Zm-50.614-75.573h37.787l-19.76-114.4zM1098.318 237l-8.667-50.267h-45.76L1035.918 237h-31.2l38.48-217.013h45.413L1129.864 237Zm-50.614-75.573h37.787l-19.76-114.4zM1145.117 237v-42.64h35.013V237Z" aria-label="pyEDAA." class="pyEDAA_Xeda_svg__TekoFont" style="fill:#558b2f"/>
  <path d="M1263.467 126.067 1309.92 237h-34.667l-29.12-82.507-29.12 82.507h-33.626l45.76-110.933-42.64-106.08h34.666l24.96 78 25.307-78h33.973zm94.639-58.24h33.974q32.586 0 32.586 30.853v63.44h-68.293v40.213q0 5.894 2.08 7.974t8.32 2.08h15.947q6.24 0 8.32-2.08t2.08-8.32V188.12h30.506v18.373q0 30.507-32.24 30.507h-33.28q-32.24 0-32.24-30.507V98.68q0-30.853 32.24-30.853zm-1.733 71.413h37.44v-36.747q0-5.893-2.08-7.973-1.733-2.08-7.973-2.08h-16.987q-6.24 0-8.32 2.08t-2.08 7.973zm158.08-134.16h31.2V237h-31.2v-13.52q-4.507 13.52-21.494 13.52h-12.48q-31.2 0-31.2-30.507V98.333q0-30.853 31.2-30.853h12.48q16.987 0 21.494 13.52zm-23.574 206.613h12.134q6.24 0 8.666-2.773 2.774-2.773 2.774-9.36v-94.64q0-6.587-2.774-9.36-2.426-2.773-8.666-2.773h-12.134q-6.24 0-8.32 2.08t-2.08 7.973v98.8q0 6.24 2.08 8.32 2.08 1.733 8.32 1.733zm148.373-143.866h31.2V237h-31.2v-13.52Q1634.746 237 1617.76 237h-12.48q-31.2 0-31.2-30.507V98.68q0-30.853 31.2-30.853h12.48q16.987 0 21.493 13.52zm-23.573 143.866h12.133q6.24 0 8.667-2.773 2.773-2.773 2.773-9.36v-94.293q0-6.587-2.773-9.36-2.427-2.774-8.667-2.774h-12.133q-6.24 0-8.32 2.08-2.08 1.734-2.08 7.974v98.453q0 6.24 2.08 8.32 2.08 1.733 8.32 1.733z" aria-label="Xeda" class="pyEDAA_Xeda_svg__TekoFont" style="fill:#9ccc65"/>
</svg>
