<svg xmlns="http://www.w3.org/2000/svg" width="2771.462" height="304">
  <path fill="none" d="M2 2h100v50H2Zm200 50h100v50H202ZM2 102h100v50H2Z" style="fill:#fff;fill-opacity:0;stroke:#9ccc65;stroke-width:4px"/>
  <path d="M202 152h100v50H202Z" style="fill:#9ccc65;fill-opacity:1;stroke:#9ccc65;stroke-width:4px"/>
  <path fill="none" d="M2 202h100v50H2Zm200 50h100v50H202Z" style="fill:#fff;fill-opacity:0;stroke:#9ccc65;stroke-width:4px"/>
  <path fill="none" d="M102 2h100v50H102Zm0 50h100v50H102Zm0 50h100v50H102Z" style="fill:#fff;fill-opacity:0;stroke:#558b2f;stroke-width:4px"/>
  <path d="M102 152h100v50H102Z" style="fill:#558b2f;fill-opacity:1;stroke:#558b2f;stroke-width:4px"/>
  <path fill="none" d="M102 202h100v50H102Zm0 50h100v50H102Z" style="fill:#fff;fill-opacity:0;stroke:#558b2f;stroke-width:4px"/>
  <path d="M429.947 67.827h12.133q31.547 0 31.547 30.853v107.813q0 30.507-31.547 30.507h-12.133q-16.987 0-21.494-13.52v61.36h-31.2V67.827h31.2v13.52q4.507-13.52 21.494-13.52Zm12.48 133.813v-98.453q0-6.24-2.08-7.974-2.08-2.08-8.32-2.08h-12.134q-6.24 0-9.013 2.774-2.427 2.773-2.427 9.36v94.293q0 6.587 2.427 9.36 2.773 2.773 9.013 2.773h12.134q6.24 0 8.32-1.733 2.08-2.08 2.08-8.32zm84.586 83.2h-20.8v-24.96h14.213q14.907 0 18.027-11.44l3.467-14.213h-16.987l-35.36-166.4h31.893l25.654 141.786 23.92-141.786h31.546L566.88 253.293q-7.627 31.547-39.867 31.547Zm127.92-73.147h62.746V237h-94.293V19.987h91.867v25.306h-60.32V112.2h49.92v25.307h-49.92zm88.052-191.706h75.574q32.24 0 32.24 30.506v156q0 30.507-32.24 30.507h-75.574Zm76.267 182.346V54.653q0-6.24-2.08-7.973-2.08-2.08-8.32-2.08h-34.32v167.787h34.32q6.24 0 8.32-1.734 2.08-2.08 2.08-8.32zM964.852 237l-8.667-50.267h-45.76L902.452 237h-31.2l38.48-217.013h45.413L996.398 237Zm-50.614-75.573h37.787l-19.76-114.4zM1098.318 237l-8.667-50.267h-45.76L1035.918 237h-31.2l38.48-217.013h45.413L1129.864 237Zm-50.614-75.573h37.787l-19.76-114.4zM1145.117 237v-42.64h35.013V237Z" aria-label="pyEDAA." class="pyEDAA_SiliconCompiler_svg__TekoFont" style="fill:#558b2f"/>
  <path d="M1262.427 201.64V148.6q0-6.24-2.08-7.973-1.734-2.08-7.974-2.08h-25.653q-31.547 0-31.547-30.854v-57.2q0-30.506 32.24-30.506h33.974q32.24 0 32.24 30.506v31.894h-31.547v-27.04q0-6.24-2.08-7.974-2.08-2.08-8.32-2.08h-14.56q-6.24 0-8.32 2.08-2.08 1.734-2.08 7.974v48.186q0 6.24 2.08 8.32 2.08 1.734 8.32 1.734h25.307q31.893 0 31.893 30.506v62.4q0 30.507-32.587 30.507h-33.626q-32.24 0-32.24-30.507V174.6h31.546v27.04q0 6.24 2.08 8.32 2.08 1.733 8.32 1.733h14.56q6.24 0 7.974-1.733 2.08-2.08 2.08-8.32zm59.279-166.053V4.733h32.587v30.854ZM1353.599 237h-31.2V67.827h31.2zm61.707 0h-31.2V5.08h31.2zm29.813-201.413V4.733h32.587v30.854ZM1477.012 237h-31.2V67.827h31.2zm126.187-115.787h-30.854v-18.026q0-6.24-2.08-7.974-2.08-2.08-8.32-2.08h-14.906q-6.24 0-8.32 2.08-2.08 1.734-2.08 7.974v98.453q0 6.24 2.08 8.32 2.08 1.733 8.32 1.733h14.907q6.24 0 8.32-1.733 2.08-2.08 2.08-8.32v-18.027h30.853v22.88q0 30.507-32.587 30.507h-32.933q-32.24 0-32.24-30.507V98.68q0-30.853 32.24-30.853h32.933q32.587 0 32.587 30.853zm56.16-53.386h37.093q32.24 0 32.24 30.853v107.813q0 30.507-32.24 30.507h-37.093q-31.894 0-31.894-30.507V98.68q0-30.853 31.894-30.853zm38.48 134.16V102.84q0-6.24-2.08-8.32t-8.32-2.08h-19.067q-6.24 0-8.32 2.08-1.733 2.08-1.733 8.32v99.147q0 6.24 1.733 8.32 2.08 2.08 8.32 2.08h19.067q6.24 0 8.32-2.08t2.08-8.32zm112.319-134.16h12.134q31.546 0 31.546 30.853V237h-31.2V103.187q0-6.24-2.08-7.974-2.08-2.08-8.32-2.08h-12.133q-6.24 0-9.013 2.774-2.427 2.773-2.427 9.36V237h-31.2V67.827h31.2v13.52q4.507-13.52 21.493-13.52zm176.454 20.106h-31.894v-33.28q0-6.24-2.08-7.973-1.733-2.08-7.973-2.08h-17.68q-6.24 0-8.32 2.08-2.08 1.733-2.08 7.973V202.68q0 6.24 2.08 8.32 2.08 1.733 8.32 1.733h17.68q6.24 0 7.973-1.733 2.08-2.08 2.08-8.32v-32.933h31.894v36.746q0 30.854-32.587 30.854h-36.747q-32.24 0-32.24-30.854v-156q0-30.506 32.24-30.506h36.747q32.587 0 32.587 30.506zm58.239-20.106h37.094q32.24 0 32.24 30.853v107.813q0 30.507-32.24 30.507h-37.094q-31.893 0-31.893-30.507V98.68q0-30.853 31.893-30.853zm38.48 134.16V102.84q0-6.24-2.08-8.32t-8.32-2.08h-19.066q-6.24 0-8.32 2.08-1.734 2.08-1.734 8.32v99.147q0 6.24 1.734 8.32 2.08 2.08 8.32 2.08h19.066q6.24 0 8.32-2.08t2.08-8.32zm177.493-134.16h12.134q31.2 0 31.2 30.853V237h-31.2V103.187q0-6.24-2.08-7.974-1.734-2.08-7.974-2.08h-12.48q-11.093 0-11.093 12.134V237h-31.2V103.187q0-6.24-2.08-7.974-2.08-2.08-8.32-2.08h-12.133q-6.24 0-9.014 2.774-2.426 2.773-2.426 9.36V237h-31.2V67.827h31.2v13.52q4.506-13.52 21.493-13.52h12.133q22.187 0 28.774 15.6 4.16-15.6 24.266-15.6zm124.8 0h12.133q31.547 0 31.547 30.853v107.813q0 30.507-31.547 30.507h-12.133q-16.987 0-21.494-13.52v61.36h-31.2V67.827h31.2v13.52q4.507-13.52 21.494-13.52zm12.48 133.813v-98.453q0-6.24-2.08-7.974-2.08-2.08-8.32-2.08h-12.134q-6.24 0-9.013 2.774-2.427 2.773-2.427 9.36v94.293q0 6.587 2.427 9.36 2.773 2.773 9.013 2.773h12.134q6.24 0 8.32-1.733 2.08-2.08 2.08-8.32zm58.933-166.053V4.733h32.586v30.854ZM2488.93 237h-31.2V67.827h31.2zm61.706 0h-31.2V5.08h31.2zm62.054-169.173h33.973q32.586 0 32.586 30.853v63.44h-68.293v40.213q0 5.894 2.08 7.974t8.32 2.08h15.947q6.24 0 8.32-2.08t2.08-8.32V188.12h30.507v18.373q0 30.507-32.24 30.507h-33.28q-32.24 0-32.24-30.507V98.68q0-30.853 32.24-30.853zm-1.734 71.413h37.44v-36.747q0-5.893-2.08-7.973-1.733-2.08-7.973-2.08h-16.987q-6.24 0-8.32 2.08t-2.08 7.973zm153.574-71.76h6.932v27.04h-12.48q-21.84 0-21.84 25.653V237h-31.2V67.827h31.2v20.8q2.774-9.014 9.707-14.907 7.28-6.24 17.68-6.24z" aria-label="SiliconCompiler" class="pyEDAA_SiliconCompiler_svg__TekoFont" style="fill:#9ccc65"/>
</svg>
