<svg xmlns="http://www.w3.org/2000/svg" width="1807.731" height="304">
  <path fill="none" d="M2 2h100v50H2Zm200 50h100v50H202ZM2 102h100v50H2Z" style="fill:#fff;fill-opacity:0;stroke:#9ccc65;stroke-width:4px"/>
  <path d="M202 152h100v50H202Z" style="fill:#9ccc65;fill-opacity:1;stroke:#9ccc65;stroke-width:4px"/>
  <path fill="none" d="M2 202h100v50H2Zm200 50h100v50H202Z" style="fill:#fff;fill-opacity:0;stroke:#9ccc65;stroke-width:4px"/>
  <path fill="none" d="M102 2h100v50H102Zm0 50h100v50H102Zm0 50h100v50H102Z" style="fill:#fff;fill-opacity:0;stroke:#558b2f;stroke-width:4px"/>
  <path d="M102 152h100v50H102Z" style="fill:#558b2f;fill-opacity:1;stroke:#558b2f;stroke-width:4px"/>
  <path fill="none" d="M102 202h100v50H102Zm0 50h100v50H102Z" style="fill:#fff;fill-opacity:0;stroke:#558b2f;stroke-width:4px"/>
  <path d="M429.947 67.827h12.133q31.547 0 31.547 30.853v107.813q0 30.507-31.547 30.507h-12.133q-16.987 0-21.494-13.52v61.36h-31.2V67.827h31.2v13.52q4.507-13.52 21.494-13.52Zm12.48 133.813v-98.453q0-6.24-2.08-7.974-2.08-2.08-8.32-2.08h-12.134q-6.24 0-9.013 2.774-2.427 2.773-2.427 9.36v94.293q0 6.587 2.427 9.36 2.773 2.773 9.013 2.773h12.134q6.24 0 8.32-1.733 2.08-2.08 2.08-8.32zm84.586 83.2h-20.8v-24.96h14.213q14.907 0 18.027-11.44l3.467-14.213h-16.987l-35.36-166.4h31.893l25.654 141.786 23.92-141.786h31.546L566.88 253.293q-7.627 31.547-39.867 31.547Zm127.92-73.147h62.746V237h-94.293V19.987h91.867v25.306h-60.32V112.2h49.92v25.307h-49.92zm88.052-191.706h75.574q32.24 0 32.24 30.506v156q0 30.507-32.24 30.507h-75.574Zm76.267 182.346V54.653q0-6.24-2.08-7.973-2.08-2.08-8.32-2.08h-34.32v167.787h34.32q6.24 0 8.32-1.734 2.08-2.08 2.08-8.32zM964.852 237l-8.667-50.267h-45.76L902.452 237h-31.2l38.48-217.013h45.413L996.398 237Zm-50.614-75.573h37.787l-19.76-114.4zM1098.318 237l-8.667-50.267h-45.76L1035.918 237h-31.2l38.48-217.013h45.413L1129.864 237Zm-50.614-75.573h37.787l-19.76-114.4zM1145.117 237v-42.64h35.013V237Z" aria-label="pyEDAA." class="pyEDAA_tsfpga_svg__TekoFont" style="fill:#558b2f"/>
  <path d="M1254.453 93.133h-23.226v107.12q0 6.24 1.733 8.32 2.08 1.734 8.32 1.734h13.173V237h-22.186q-32.587 0-32.587-30.507V93.133h-15.947V67.827h15.947V39.053h31.547v28.774h23.226zm75.227 109.894v-28.08q0-6.24-2.08-7.974-2.08-2.08-8.32-2.08h-17.68q-32.24 0-32.24-30.506V98.68q0-30.853 32.24-30.853h25.307q32.586 0 32.586 30.853v16.293h-30.506V101.8q0-6.24-2.08-7.973-2.08-2.08-8.32-2.08h-8.32q-6.24 0-8.32 2.08-2.08 1.733-2.08 7.973v29.12q0 6.24 2.08 8.32 2.08 1.733 8.32 1.733h18.026q31.894 0 31.894 30.854v34.666q0 30.507-32.24 30.507h-25.654q-32.24 0-32.24-30.507v-16.64h30.507v13.174q0 6.24 2.08 8.32 2.08 1.733 8.32 1.733h8.32q6.24 0 8.32-1.733 2.08-2.08 2.08-8.32zm117.173-171.6h-14.56q-6.24 0-8.32 2.08-2.08 1.733-2.08 7.973v26.347h24.96v25.306h-24.96V237h-31.2V93.133h-16.987V67.827h16.987v-32.24q0-30.507 32.24-30.507h23.92zm69.679 36.4h12.134q31.546 0 31.546 30.853v107.813q0 30.507-31.546 30.507h-12.134q-16.986 0-21.493-13.52v61.36h-31.2V67.827h31.2v13.52q4.507-13.52 21.493-13.52zm12.48 133.813v-98.453q0-6.24-2.08-7.974-2.08-2.08-8.32-2.08h-12.133q-6.24 0-9.013 2.774-2.427 2.773-2.427 9.36v94.293q0 6.587 2.427 9.36 2.773 2.773 9.013 2.773h12.133q6.24 0 8.32-1.733 2.08-2.08 2.08-8.32zm122.72-133.813h31.2v186.506q0 30.507-32.587 30.507h-57.893v-24.613h48.88q6.24 0 8.32-2.08t2.08-7.974V221.4q-4.507 13.52-21.493 13.52h-12.48q-31.2 0-31.2-30.853V98.68q0-30.853 31.2-30.853h12.48q16.986 0 21.493 13.52zm-23.573 141.786h12.133q6.24 0 8.667-2.773 2.773-2.773 2.773-9.36v-92.213q0-6.587-2.773-9.36-2.427-2.774-8.667-2.774h-12.133q-6.24 0-8.32 2.08-2.08 1.734-2.08 7.974v96.373q0 5.893 2.08 7.973t8.32 2.08zm148.373-141.786h31.2V237h-31.2v-13.52q-4.507 13.52-21.494 13.52h-12.48q-31.2 0-31.2-30.507V98.68q0-30.853 31.2-30.853h12.48q16.987 0 21.493 13.52zm-23.574 143.866h12.133q6.24 0 8.667-2.773 2.773-2.773 2.773-9.36v-94.293q0-6.587-2.773-9.36-2.427-2.774-8.667-2.774h-12.133q-6.24 0-8.32 2.08-2.08 1.734-2.08 7.974v98.453q0 6.24 2.08 8.32 2.08 1.733 8.32 1.733z" aria-label="tsfpga" class="pyEDAA_tsfpga_svg__TekoFont" style="fill:#9ccc65"/>
</svg>
