<svg xmlns="http://www.w3.org/2000/svg" width="2293.757" height="304">
  <path fill="none" d="M2 2h100v50H2Zm200 50h100v50H202ZM2 102h100v50H2Z" style="fill:#fff;fill-opacity:0;stroke:#9ccc65;stroke-width:4px"/>
  <path d="M202 152h100v50H202Z" style="fill:#9ccc65;fill-opacity:1;stroke:#9ccc65;stroke-width:4px"/>
  <path fill="none" d="M2 202h100v50H2Zm200 50h100v50H202Z" style="fill:#fff;fill-opacity:0;stroke:#9ccc65;stroke-width:4px"/>
  <path fill="none" d="M102 2h100v50H102Zm0 50h100v50H102Zm0 50h100v50H102Z" style="fill:#fff;fill-opacity:0;stroke:#558b2f;stroke-width:4px"/>
  <path d="M102 152h100v50H102Z" style="fill:#558b2f;fill-opacity:1;stroke:#558b2f;stroke-width:4px"/>
  <path fill="none" d="M102 202h100v50H102Zm0 50h100v50H102Z" style="fill:#fff;fill-opacity:0;stroke:#558b2f;stroke-width:4px"/>
  <path d="M429.947 67.827h12.133q31.547 0 31.547 30.853v107.813q0 30.507-31.547 30.507h-12.133q-16.987 0-21.494-13.52v61.36h-31.2V67.827h31.2v13.52q4.507-13.52 21.494-13.52Zm12.48 133.813v-98.453q0-6.24-2.08-7.974-2.08-2.08-8.32-2.08h-12.134q-6.24 0-9.013 2.774-2.427 2.773-2.427 9.36v94.293q0 6.587 2.427 9.36 2.773 2.773 9.013 2.773h12.134q6.24 0 8.32-1.733 2.08-2.08 2.08-8.32zm84.586 83.2h-20.8v-24.96h14.213q14.907 0 18.027-11.44l3.467-14.213h-16.987l-35.36-166.4h31.893l25.654 141.786 23.92-141.786h31.546L566.88 253.293q-7.627 31.547-39.867 31.547Zm127.92-73.147h62.746V237h-94.293V19.987h91.867v25.306h-60.32V112.2h49.92v25.307h-49.92zm88.052-191.706h75.574q32.24 0 32.24 30.506v156q0 30.507-32.24 30.507h-75.574Zm76.267 182.346V54.653q0-6.24-2.08-7.973-2.08-2.08-8.32-2.08h-34.32v167.787h34.32q6.24 0 8.32-1.734 2.08-2.08 2.08-8.32zM964.852 237l-8.667-50.267h-45.76L902.452 237h-31.2l38.48-217.013h45.413L996.398 237Zm-50.614-75.573h37.787l-19.76-114.4zM1098.318 237l-8.667-50.267h-45.76L1035.918 237h-31.2l38.48-217.013h45.413L1129.864 237Zm-50.614-75.573h37.787l-19.76-114.4zM1145.117 237v-42.64h35.013V237Z" aria-label="pyEDAA." class="pyEDAA_SymbiFlow_svg__TekoFont" style="fill:#558b2f"/>
  <path d="M1262.427 201.64V148.6q0-6.24-2.08-7.973-1.734-2.08-7.974-2.08h-25.653q-31.547 0-31.547-30.854v-57.2q0-30.506 32.24-30.506h33.974q32.24 0 32.24 30.506v31.894h-31.547v-27.04q0-6.24-2.08-7.974-2.08-2.08-8.32-2.08h-14.56q-6.24 0-8.32 2.08-2.08 1.734-2.08 7.974v48.186q0 6.24 2.08 8.32 2.08 1.734 8.32 1.734h25.307q31.893 0 31.893 30.506v62.4q0 30.507-32.587 30.507h-33.626q-32.24 0-32.24-30.507V174.6h31.546v27.04q0 6.24 2.08 8.32 2.08 1.733 8.32 1.733h14.56q6.24 0 7.974-1.733 2.08-2.08 2.08-8.32zm84.933 83.2h-20.8v-24.96h14.213q14.906 0 18.026-11.44l3.467-14.213h-16.987l-35.36-166.4h31.894l25.653 141.786 23.92-141.786h31.547l-35.707 185.466q-7.627 31.547-39.867 31.547Zm211.466-217.013h12.133q31.2 0 31.2 30.853V237h-31.2V103.187q0-6.24-2.08-7.974-1.733-2.08-7.973-2.08h-12.48q-11.094 0-11.094 12.134V237h-31.2V103.187q0-6.24-2.08-7.974-2.08-2.08-8.32-2.08H1483.6q-6.24 0-9.013 2.774-2.427 2.773-2.427 9.36V237h-31.2V67.827h31.2v13.52q4.507-13.52 21.493-13.52h12.134q22.186 0 28.773 15.6 4.16-15.6 24.267-15.6zm124.799-.347h12.133q31.547 0 31.547 30.853v108.16q0 30.507-31.547 30.507h-12.133q-16.987 0-21.493-13.52V237h-31.2V5.08h31.2V81q4.506-13.52 21.493-13.52zm12.48 134.16v-98.8q0-5.893-2.08-7.973t-8.32-2.08h-12.133q-6.24 0-9.013 2.773-2.427 2.773-2.427 9.36v94.64q0 6.587 2.427 9.36 2.773 2.773 9.013 2.773h12.133q6.24 0 8.32-1.733 2.08-2.08 2.08-8.32zm58.933-166.053V4.733h32.587v30.854ZM1786.931 237h-31.2V67.827h31.2zm127.92-191.707h-63.093v71.414h49.92v24.613h-49.92V237h-31.547V19.987h94.64zM1963.73 237h-31.2V5.08h31.2zm60.667-169.173h37.094q32.24 0 32.24 30.853v107.813q0 30.507-32.24 30.507h-37.094q-31.893 0-31.893-30.507V98.68q0-30.853 31.893-30.853zm38.48 134.16V102.84q0-6.24-2.08-8.32t-8.32-2.08h-19.066q-6.24 0-8.32 2.08-1.734 2.08-1.734 8.32v99.147q0 6.24 1.734 8.32 2.08 2.08 8.32 2.08h19.066q6.24 0 8.32-2.08t2.08-8.32zm201.413-134.16h29.467L2262.557 237h-41.253l-20.107-127.92L2181.09 237h-41.253l-30.853-169.173h29.466l22.534 142.48 21.84-142.48h37.093l21.147 142.48z" aria-label="SymbiFlow" class="pyEDAA_SymbiFlow_svg__TekoFont" style="fill:#9ccc65"/>
</svg>
