<svg xmlns="http://www.w3.org/2000/svg" width="1175.412" height="304">
  <path fill="none" d="M2 2h100v50H2Zm200 50h100v50H202ZM2 102h100v50H2Z" style="fill:#fff;fill-opacity:0;stroke:#9ccc65;stroke-width:4px"/>
  <path d="M202 152h100v50H202Z" style="fill:#9ccc65;fill-opacity:1;stroke:#9ccc65;stroke-width:4px"/>
  <path fill="none" d="M2 202h100v50H2Zm200 50h100v50H202Z" style="fill:#fff;fill-opacity:0;stroke:#9ccc65;stroke-width:4px"/>
  <path fill="none" d="M102 2h100v50H102Zm0 50h100v50H102Zm0 50h100v50H102Z" style="fill:#fff;fill-opacity:0;stroke:#558b2f;stroke-width:4px"/>
  <path d="M102 152h100v50H102Z" style="fill:#558b2f;fill-opacity:1;stroke:#558b2f;stroke-width:4px"/>
  <path fill="none" d="M102 202h100v50H102Zm0 50h100v50H102Z" style="fill:#fff;fill-opacity:0;stroke:#558b2f;stroke-width:4px"/>
  <path d="M429.947 67.827h12.133q31.547 0 31.547 30.853v107.813q0 30.507-31.547 30.507h-12.133q-16.987 0-21.494-13.52v61.36h-31.2V67.827h31.2v13.52q4.507-13.52 21.494-13.52Zm12.48 133.813v-98.453q0-6.24-2.08-7.974-2.08-2.08-8.32-2.08h-12.134q-6.24 0-9.013 2.774-2.427 2.773-2.427 9.36v94.293q0 6.587 2.427 9.36 2.773 2.773 9.013 2.773h12.134q6.24 0 8.32-1.733 2.08-2.08 2.08-8.32zm84.586 83.2h-20.8v-24.96h14.213q14.907 0 18.027-11.44l3.467-14.213h-16.987l-35.36-166.4h31.893l25.654 141.786 23.92-141.786h31.546L566.88 253.293q-7.627 31.547-39.867 31.547Z" aria-label="py" class="pyIPCMI_svg__TekoFont" style="fill:#558b2f"/>
  <path d="M630.8 19.987H662V237h-31.2zm70.026 0h71.067q32.24 0 32.24 30.506V122.6q0 30.507-32.24 30.507h-39.867V237h-31.2zm72.107 97.76v-62.4q0-6.24-2.08-7.974-2.08-2.08-8.32-2.08h-30.507v82.854h30.507q6.24 0 8.32-2.08t2.08-8.32zm158.773-29.814h-31.894v-33.28q0-6.24-2.08-7.973Q896 44.6 889.76 44.6h-17.68q-6.24 0-8.32 2.08-2.08 1.733-2.08 7.973V202.68q0 6.24 2.08 8.32 2.08 1.733 8.32 1.733h17.68q6.24 0 7.973-1.733 2.08-2.08 2.08-8.32v-32.933h31.894v36.746q0 30.854-32.587 30.854h-36.747q-32.24 0-32.24-30.854v-156q0-30.506 32.24-30.506h36.747q32.587 0 32.587 30.506zM989.945 237H962.56V19.987h34.32l37.093 134.506 37.093-134.506h34.32V237H1078V78.227l-29.814 111.626h-28.426l-29.814-111.28Zm154.267-217.013h31.2V237h-31.2z" aria-label="IPCMI" class="pyIPCMI_svg__TekoFont" style="fill:#9ccc65"/>
</svg>
